<svg xmlns="http://www.w3.org/2000/svg" viewBox="0 0 40 40" overflow="visible" id="svg324914993_1374"><g><path d="M 14.999 7.237 C 9.653 8.833 6.186 13.99 6.724 19.543 C 7.263 25.096 11.657 29.49 17.21 30.029 C 22.763 30.567 27.92 27.1 29.516 21.754 M 33.332 33.421 L 26.749 26.837" fill="transparent" stroke-width="2" stroke="rgb(255, 106, 32)" stroke-linecap="round" stroke-miterlimit="10" stroke-dasharray=""></path><path d="M 28.737 6.979 L 27.577 3.959 C 27.434 3.582 27.073 3.333 26.67 3.333 C 26.268 3.333 25.907 3.582 25.764 3.959 L 24.602 6.979 C 24.433 7.419 24.085 7.767 23.645 7.937 L 20.625 9.097 C 20.249 9.24 20 9.601 20 10.004 C 20 10.406 20.249 10.767 20.625 10.91 L 23.645 12.07 C 24.085 12.24 24.433 12.588 24.602 13.029 L 25.764 16.049 C 25.907 16.425 26.268 16.674 26.67 16.674 C 27.073 16.674 27.434 16.425 27.577 16.049 L 28.739 13.029 C 28.907 12.588 29.255 12.24 29.695 12.07 L 32.715 10.91 C 33.092 10.767 33.34 10.406 33.34 10.004 C 33.34 9.601 33.092 9.24 32.715 9.097 L 29.695 7.937 C 29.254 7.768 28.906 7.419 28.737 6.979 Z" fill="rgb(255, 106, 32)"></path><path d="M 0 0 L 40 0 L 40 40 L 0 40 Z" fill="transparent"></path></g></svg>